<svg xmlns="http://www.w3.org/2000/svg" viewBox="0 0 512 289.07"><defs><style>.cls-1{fill:#ff8000;}.cls-2{fill:#00e054;}.cls-3{fill:#fff;}.cls-4{fill:#40bcf4;}</style></defs><g id="Layer_2" data-name="Layer 2"><g id="Layer_1-2" data-name="Layer 1"><path class="cls-1" d="M166,124l33.59-27V26.35C199.61,4.27,174-8,156.83,5.85L9.82,124a26.32,26.32,0,0,0,0,41l147,118.18c17.21,13.84,42.78,1.58,42.78-20.5V192.05L166,165A26.31,26.31,0,0,1,166,124Z"/><path class="cls-2" d="M322.21,124l33.6-27V26.35C355.81,4.27,330.23-8,313,5.85L199.61,97v95L313,283.22c17.21,13.84,42.79,1.58,42.79-20.5V192.05l-33.6-27A26.31,26.31,0,0,1,322.21,124Z"/><path class="cls-3" d="M166,124a26.31,26.31,0,0,0,0,41l33.59,27V97Z"/><path class="cls-4" d="M469.21,5.85,355.81,97v95l113.4,91.17c17.22,13.84,42.79,1.58,42.79-20.5V26.35C512,4.27,486.43-8,469.21,5.85Z"/><path class="cls-3" d="M322.21,124a26.31,26.31,0,0,0,0,41l33.6,27V97Z"/></g></g></svg>